<mxfile host="Electron" modified="2023-09-13T03:57:23.201Z" agent="Mozilla/5.0 (X11; Linux x86_64) AppleWebKit/537.36 (KHTML, like Gecko) draw.io/21.6.8 Chrome/114.0.5735.289 Electron/25.5.0 Safari/537.36" etag="vahgTUHNy78cy7b5OF5j" version="21.6.8" type="device">
  <diagram name="Page-1" id="RwDXujfHXfDytXPlLWtF">
    <mxGraphModel dx="1374" dy="560" grid="1" gridSize="10" guides="1" tooltips="1" connect="1" arrows="1" fold="1" page="1" pageScale="1" pageWidth="850" pageHeight="1100" math="1" shadow="0">
      <root>
        <mxCell id="0" />
        <mxCell id="1" parent="0" />
        <mxCell id="RktTQIAn4GCQVKS15PfV-10" value="" style="edgeStyle=orthogonalEdgeStyle;rounded=0;orthogonalLoop=1;jettySize=auto;html=1;" edge="1" parent="1" source="RktTQIAn4GCQVKS15PfV-3" target="RktTQIAn4GCQVKS15PfV-5">
          <mxGeometry relative="1" as="geometry" />
        </mxCell>
        <mxCell id="RktTQIAn4GCQVKS15PfV-11" style="edgeStyle=orthogonalEdgeStyle;rounded=0;orthogonalLoop=1;jettySize=auto;html=1;exitX=1;exitY=0.5;exitDx=0;exitDy=0;entryX=0;entryY=0.5;entryDx=0;entryDy=0;" edge="1" parent="1" source="RktTQIAn4GCQVKS15PfV-3" target="RktTQIAn4GCQVKS15PfV-6">
          <mxGeometry relative="1" as="geometry" />
        </mxCell>
        <mxCell id="RktTQIAn4GCQVKS15PfV-12" style="edgeStyle=orthogonalEdgeStyle;rounded=0;orthogonalLoop=1;jettySize=auto;html=1;exitX=1;exitY=0.5;exitDx=0;exitDy=0;entryX=0;entryY=0.5;entryDx=0;entryDy=0;" edge="1" parent="1" source="RktTQIAn4GCQVKS15PfV-3" target="RktTQIAn4GCQVKS15PfV-7">
          <mxGeometry relative="1" as="geometry" />
        </mxCell>
        <mxCell id="RktTQIAn4GCQVKS15PfV-3" value="-" style="ellipse;whiteSpace=wrap;html=1;aspect=fixed;" vertex="1" parent="1">
          <mxGeometry x="140" y="410" width="20" height="20" as="geometry" />
        </mxCell>
        <mxCell id="RktTQIAn4GCQVKS15PfV-4" value="PID" style="swimlane;whiteSpace=wrap;html=1;dashed=1;dashPattern=8 8;glass=0;" vertex="1" parent="1">
          <mxGeometry x="240" y="220" width="190" height="370" as="geometry" />
        </mxCell>
        <mxCell id="RktTQIAn4GCQVKS15PfV-5" value="$$K_i\int_0^t e(\tau) d\tau$$" style="rounded=0;whiteSpace=wrap;html=1;" vertex="1" parent="RktTQIAn4GCQVKS15PfV-4">
          <mxGeometry x="35" y="170" width="120" height="60" as="geometry" />
        </mxCell>
        <mxCell id="RktTQIAn4GCQVKS15PfV-6" value="$$K_p e(t)$$" style="rounded=0;whiteSpace=wrap;html=1;" vertex="1" parent="RktTQIAn4GCQVKS15PfV-4">
          <mxGeometry x="35" y="70" width="120" height="60" as="geometry" />
        </mxCell>
        <mxCell id="RktTQIAn4GCQVKS15PfV-7" value="$$K_d \frac{de(t)}{dt}$$" style="rounded=0;whiteSpace=wrap;html=1;" vertex="1" parent="RktTQIAn4GCQVKS15PfV-4">
          <mxGeometry x="35" y="270" width="120" height="60" as="geometry" />
        </mxCell>
        <mxCell id="RktTQIAn4GCQVKS15PfV-21" value="" style="edgeStyle=orthogonalEdgeStyle;rounded=0;orthogonalLoop=1;jettySize=auto;html=1;" edge="1" parent="1" source="RktTQIAn4GCQVKS15PfV-8" target="RktTQIAn4GCQVKS15PfV-20">
          <mxGeometry relative="1" as="geometry" />
        </mxCell>
        <mxCell id="RktTQIAn4GCQVKS15PfV-8" value="P" style="rounded=0;whiteSpace=wrap;html=1;" vertex="1" parent="1">
          <mxGeometry x="580" y="390" width="120" height="60" as="geometry" />
        </mxCell>
        <mxCell id="RktTQIAn4GCQVKS15PfV-18" value="" style="edgeStyle=orthogonalEdgeStyle;rounded=0;orthogonalLoop=1;jettySize=auto;html=1;" edge="1" parent="1" source="RktTQIAn4GCQVKS15PfV-13" target="RktTQIAn4GCQVKS15PfV-17">
          <mxGeometry relative="1" as="geometry" />
        </mxCell>
        <mxCell id="RktTQIAn4GCQVKS15PfV-13" value="+" style="ellipse;whiteSpace=wrap;html=1;aspect=fixed;" vertex="1" parent="1">
          <mxGeometry x="450" y="410" width="20" height="20" as="geometry" />
        </mxCell>
        <mxCell id="RktTQIAn4GCQVKS15PfV-14" value="" style="edgeStyle=orthogonalEdgeStyle;rounded=0;orthogonalLoop=1;jettySize=auto;html=1;" edge="1" parent="1" source="RktTQIAn4GCQVKS15PfV-5" target="RktTQIAn4GCQVKS15PfV-13">
          <mxGeometry relative="1" as="geometry" />
        </mxCell>
        <mxCell id="RktTQIAn4GCQVKS15PfV-15" style="edgeStyle=orthogonalEdgeStyle;rounded=0;orthogonalLoop=1;jettySize=auto;html=1;exitX=1;exitY=0.5;exitDx=0;exitDy=0;entryX=0.5;entryY=0;entryDx=0;entryDy=0;" edge="1" parent="1" source="RktTQIAn4GCQVKS15PfV-6" target="RktTQIAn4GCQVKS15PfV-13">
          <mxGeometry relative="1" as="geometry" />
        </mxCell>
        <mxCell id="RktTQIAn4GCQVKS15PfV-16" style="edgeStyle=orthogonalEdgeStyle;rounded=0;orthogonalLoop=1;jettySize=auto;html=1;exitX=1;exitY=0.5;exitDx=0;exitDy=0;entryX=0.5;entryY=1;entryDx=0;entryDy=0;" edge="1" parent="1" source="RktTQIAn4GCQVKS15PfV-7" target="RktTQIAn4GCQVKS15PfV-13">
          <mxGeometry relative="1" as="geometry" />
        </mxCell>
        <mxCell id="RktTQIAn4GCQVKS15PfV-19" value="" style="edgeStyle=orthogonalEdgeStyle;rounded=0;orthogonalLoop=1;jettySize=auto;html=1;" edge="1" parent="1" source="RktTQIAn4GCQVKS15PfV-17" target="RktTQIAn4GCQVKS15PfV-8">
          <mxGeometry relative="1" as="geometry" />
        </mxCell>
        <mxCell id="RktTQIAn4GCQVKS15PfV-17" value="+" style="ellipse;whiteSpace=wrap;html=1;aspect=fixed;" vertex="1" parent="1">
          <mxGeometry x="530" y="410" width="20" height="20" as="geometry" />
        </mxCell>
        <mxCell id="RktTQIAn4GCQVKS15PfV-23" style="edgeStyle=orthogonalEdgeStyle;rounded=0;orthogonalLoop=1;jettySize=auto;html=1;exitX=0.5;exitY=1;exitDx=0;exitDy=0;entryX=1;entryY=0.5;entryDx=0;entryDy=0;" edge="1" parent="1" source="RktTQIAn4GCQVKS15PfV-20" target="RktTQIAn4GCQVKS15PfV-22">
          <mxGeometry relative="1" as="geometry" />
        </mxCell>
        <mxCell id="RktTQIAn4GCQVKS15PfV-20" value="+" style="ellipse;whiteSpace=wrap;html=1;aspect=fixed;" vertex="1" parent="1">
          <mxGeometry x="730" y="410" width="20" height="20" as="geometry" />
        </mxCell>
        <mxCell id="RktTQIAn4GCQVKS15PfV-24" style="edgeStyle=orthogonalEdgeStyle;rounded=0;orthogonalLoop=1;jettySize=auto;html=1;exitX=0;exitY=0.5;exitDx=0;exitDy=0;entryX=0.5;entryY=1;entryDx=0;entryDy=0;" edge="1" parent="1" source="RktTQIAn4GCQVKS15PfV-22" target="RktTQIAn4GCQVKS15PfV-3">
          <mxGeometry relative="1" as="geometry" />
        </mxCell>
        <mxCell id="RktTQIAn4GCQVKS15PfV-22" value="+" style="ellipse;whiteSpace=wrap;html=1;aspect=fixed;" vertex="1" parent="1">
          <mxGeometry x="630" y="630" width="20" height="20" as="geometry" />
        </mxCell>
        <mxCell id="RktTQIAn4GCQVKS15PfV-25" value="" style="endArrow=classic;html=1;rounded=0;entryX=0;entryY=0.5;entryDx=0;entryDy=0;" edge="1" parent="1" target="RktTQIAn4GCQVKS15PfV-3">
          <mxGeometry width="50" height="50" relative="1" as="geometry">
            <mxPoint x="60" y="420" as="sourcePoint" />
            <mxPoint x="110" y="380" as="targetPoint" />
          </mxGeometry>
        </mxCell>
        <mxCell id="RktTQIAn4GCQVKS15PfV-34" value="" style="endArrow=classic;html=1;rounded=0;entryX=0.5;entryY=0;entryDx=0;entryDy=0;" edge="1" parent="1" target="RktTQIAn4GCQVKS15PfV-17">
          <mxGeometry width="50" height="50" relative="1" as="geometry">
            <mxPoint x="540" y="340" as="sourcePoint" />
            <mxPoint x="550" y="360" as="targetPoint" />
          </mxGeometry>
        </mxCell>
        <mxCell id="RktTQIAn4GCQVKS15PfV-35" value="" style="endArrow=classic;html=1;rounded=0;entryX=0.5;entryY=0;entryDx=0;entryDy=0;" edge="1" parent="1">
          <mxGeometry width="50" height="50" relative="1" as="geometry">
            <mxPoint x="739.71" y="340" as="sourcePoint" />
            <mxPoint x="739.71" y="410" as="targetPoint" />
          </mxGeometry>
        </mxCell>
        <mxCell id="RktTQIAn4GCQVKS15PfV-36" value="$$d_i$$" style="text;html=1;align=center;verticalAlign=middle;resizable=0;points=[];autosize=1;strokeColor=none;fillColor=none;" vertex="1" parent="1">
          <mxGeometry x="505" y="308" width="70" height="30" as="geometry" />
        </mxCell>
        <mxCell id="RktTQIAn4GCQVKS15PfV-37" value="$$d_o$$" style="text;html=1;align=center;verticalAlign=middle;resizable=0;points=[];autosize=1;strokeColor=none;fillColor=none;" vertex="1" parent="1">
          <mxGeometry x="705" y="308" width="70" height="30" as="geometry" />
        </mxCell>
        <mxCell id="RktTQIAn4GCQVKS15PfV-38" value="$$n$$" style="text;html=1;align=center;verticalAlign=middle;resizable=0;points=[];autosize=1;strokeColor=none;fillColor=none;" vertex="1" parent="1">
          <mxGeometry x="610" y="540" width="60" height="30" as="geometry" />
        </mxCell>
        <mxCell id="RktTQIAn4GCQVKS15PfV-39" value="$$r$$" style="text;html=1;align=center;verticalAlign=middle;resizable=0;points=[];autosize=1;strokeColor=none;fillColor=none;" vertex="1" parent="1">
          <mxGeometry x="50" y="390" width="50" height="30" as="geometry" />
        </mxCell>
        <mxCell id="RktTQIAn4GCQVKS15PfV-40" value="" style="edgeStyle=none;orthogonalLoop=1;jettySize=auto;html=1;rounded=0;entryX=0.5;entryY=0;entryDx=0;entryDy=0;" edge="1" parent="1" target="RktTQIAn4GCQVKS15PfV-22">
          <mxGeometry width="80" relative="1" as="geometry">
            <mxPoint x="640" y="580" as="sourcePoint" />
            <mxPoint x="640" y="620" as="targetPoint" />
            <Array as="points" />
          </mxGeometry>
        </mxCell>
      </root>
    </mxGraphModel>
  </diagram>
</mxfile>
